<svg version="1.1" xmlns="http://www.w3.org/2000/svg" xmlns:xlink="http://www.w3.org/1999/xlink" width="803" height="380"><defs/><g><g transform="translate(-54,-30) scale(1,1)"><rect fill="#C0C0C0" stroke="none" x="167" y="47" width="479" height="360" opacity="0.2"/></g><g transform="translate(-54,-30) scale(1,1)"><rect fill="#ffffff" stroke="none" x="160" y="40" width="479" height="360"/></g><g transform="translate(-54,-30) scale(1,1)"><path fill="none" stroke="#000000" d="M 160 40 L 639 40 L 639 400 L 160 400 L 160 40 Z Z" stroke-miterlimit="10"/></g><g transform="translate(-54,-30) scale(1,1)"><g><path fill="none" stroke="none"/><text fill="#000000" stroke="none" font-family="Arial" font-size="13px" font-style="normal" font-weight="bold" text-decoration="none" x="389.02001953125" y="59.5">Jeu</text></g></g><g transform="translate(-54,-30) scale(1,1)"><path fill="#ffffff" stroke="none" d="M 84.74909090909091 260.4 C 84.74909090909091 254.10395327999998 89.7862939229091 249 96 249 C 102.2137060770909 249 107.25090909090909 254.10395327999998 107.25090909090909 260.4 C 107.25090909090909 266.69604671999997 102.2137060770909 271.8 96 271.8 C 89.7862939229091 271.8 84.74909090909091 266.69604671999997 84.74909090909091 260.4 Z"/></g><g transform="translate(-54,-30) scale(1,1)"><path fill="none" stroke="#000000" d="M 84.74909090909091 260.4 C 84.74909090909091 254.10395327999998 89.7862939229091 249 96 249 C 102.2137060770909 249 107.25090909090909 254.10395327999998 107.25090909090909 260.4 C 107.25090909090909 266.69604671999997 102.2137060770909 271.8 96 271.8 C 89.7862939229091 271.8 84.74909090909091 266.69604671999997 84.74909090909091 260.4 Z" stroke-miterlimit="10"/></g><g transform="translate(-54,-30) scale(1,1)"><path fill="none" stroke="#000000" d="M 96 271.8 L 96 294.2" stroke-miterlimit="10"/></g><g transform="translate(-54,-30) scale(1,1)"><path fill="none" stroke="#000000" d="M 84.08727272727273 280.2 L 107.91272727272727 280.2" stroke-miterlimit="10"/></g><g transform="translate(-54,-30) scale(1,1)"><path fill="none" stroke="#000000" d="M 96 294.2 L 79.45454545454545 317" stroke-miterlimit="10"/></g><g transform="translate(-54,-30) scale(1,1)"><path fill="none" stroke="#000000" d="M 96 294.2 L 112.54545454545455 317" stroke-miterlimit="10"/></g><g transform="translate(-54,-30) scale(1,1)"><g><path fill="none" stroke="none"/><text fill="#000000" stroke="none" font-family="Arial" font-size="13px" font-style="normal" font-weight="bold" text-decoration="none" x="76.12548828125" y="337.5">Joueur</text></g></g><g transform="translate(-54,-30) scale(1,1)"><path fill="#C0C0C0" stroke="none" d="M 287 134.5 C 287 117.1030288 322.5933584 103 366.5 103 C 410.4066416 103 446 117.1030288 446 134.5 C 446 151.8969712 410.4066416 166 366.5 166 C 322.5933584 166 287 151.8969712 287 134.5 Z" opacity="0.2"/></g><g transform="translate(-54,-30) scale(1,1)"><path fill="#ffffff" stroke="none" d="M 280 127.5 C 280 110.1030288 315.5933584 96 359.5 96 C 403.4066416 96 439 110.1030288 439 127.5 C 439 144.8969712 403.4066416 159 359.5 159 C 315.5933584 159 280 144.8969712 280 127.5 Z"/></g><g transform="translate(-54,-30) scale(1,1)"><path fill="none" stroke="#000000" d="M 280 127.5 C 280 110.1030288 315.5933584 96 359.5 96 C 403.4066416 96 439 110.1030288 439 127.5 C 439 144.8969712 403.4066416 159 359.5 159 C 315.5933584 159 280 144.8969712 280 127.5 Z" stroke-miterlimit="10"/></g><g transform="translate(-54,-30) scale(1,1)"><g><path fill="none" stroke="none"/><text fill="#000000" stroke="none" font-family="Arial" font-size="13px" font-style="normal" font-weight="bold" text-decoration="none" x="323.73095703125" y="134.5">Se Déplacer</text></g></g><g transform="translate(-54,-30) scale(1,1)"><path fill="#C0C0C0" stroke="none" d="M 247 234.5 C 247 219.31216799999999 282.5933584 207 326.5 207 C 370.4066416 207 406 219.31216799999999 406 234.5 C 406 249.68783200000001 370.4066416 262 326.5 262 C 282.5933584 262 247 249.68783200000001 247 234.5 Z" opacity="0.2"/></g><g transform="translate(-54,-30) scale(1,1)"><path fill="#ffffff" stroke="none" d="M 240 227.5 C 240 212.31216799999999 275.5933584 200 319.5 200 C 363.4066416 200 399 212.31216799999999 399 227.5 C 399 242.68783200000001 363.4066416 255 319.5 255 C 275.5933584 255 240 242.68783200000001 240 227.5 Z"/></g><g transform="translate(-54,-30) scale(1,1)"><path fill="none" stroke="#000000" d="M 240 227.5 C 240 212.31216799999999 275.5933584 200 319.5 200 C 363.4066416 200 399 212.31216799999999 399 227.5 C 399 242.68783200000001 363.4066416 255 319.5 255 C 275.5933584 255 240 242.68783200000001 240 227.5 Z" stroke-miterlimit="10"/></g><g transform="translate(-54,-30) scale(1,1)"><g><path fill="none" stroke="none"/><text fill="#000000" stroke="none" font-family="Arial" font-size="13px" font-style="normal" font-weight="bold" text-decoration="none" x="295.655029296875" y="234.5">Interagir</text></g></g><g transform="translate(-54,-30) scale(1,1)"><path fill="#C0C0C0" stroke="none" d="M 255 335 C 255 317.3268864 289.0263552 303 331 303 C 372.9736448 303 407 317.3268864 407 335 C 407 352.6731136 372.9736448 367 331 367 C 289.0263552 367 255 352.6731136 255 335 Z" opacity="0.2"/></g><g transform="translate(-54,-30) scale(1,1)"><path fill="#ffffff" stroke="none" d="M 248 328 C 248 310.3268864 282.0263552 296 324 296 C 365.9736448 296 400 310.3268864 400 328 C 400 345.6731136 365.9736448 360 324 360 C 282.0263552 360 248 345.6731136 248 328 Z"/></g><g transform="translate(-54,-30) scale(1,1)"><path fill="none" stroke="#000000" d="M 248 328 C 248 310.3268864 282.0263552 296 324 296 C 365.9736448 296 400 310.3268864 400 328 C 400 345.6731136 365.9736448 360 324 360 C 282.0263552 360 248 345.6731136 248 328 Z" stroke-miterlimit="10"/></g><g transform="translate(-54,-30) scale(1,1)"><g><path fill="none" stroke="none"/><text fill="#000000" stroke="none" font-family="Arial" font-size="13px" font-style="normal" font-weight="bold" text-decoration="none" x="304.49365234375" y="335">Quitter</text></g></g><g transform="translate(-54,-30) scale(1,1)"><path fill="none" stroke="#000000" d="M 129 300 L 247 317" stroke-miterlimit="10"/></g><g transform="translate(-54,-30) scale(1,1)"><path fill="none" stroke="#000000" d="M 129 285 L 239 251" stroke-miterlimit="10"/></g><g transform="translate(-54,-30) scale(1,1)"><path fill="none" stroke="#000000" d="M 129 274 L 307 160" stroke-miterlimit="10"/></g><g transform="translate(-54,-30) scale(1,1)"><path fill="#C0C0C0" stroke="none" d="M 727 226.5 C 727 206.8938896 755.4299152 191 790.5 191 C 825.5700848 191 854 206.8938896 854 226.5 C 854 246.1061104 825.5700848 262 790.5 262 C 755.4299152 262 727 246.1061104 727 226.5 Z" opacity="0.2"/></g><g transform="translate(-54,-30) scale(1,1)"><path fill="#ffffff" stroke="none" d="M 720 219.5 C 720 199.8938896 748.4299152 184 783.5 184 C 818.5700848 184 847 199.8938896 847 219.5 C 847 239.1061104 818.5700848 255 783.5 255 C 748.4299152 255 720 239.1061104 720 219.5 Z"/></g><g transform="translate(-54,-30) scale(1,1)"><path fill="none" stroke="#000000" d="M 720 219.5 C 720 199.8938896 748.4299152 184 783.5 184 C 818.5700848 184 847 199.8938896 847 219.5 C 847 239.1061104 818.5700848 255 783.5 255 C 748.4299152 255 720 239.1061104 720 219.5 Z" stroke-miterlimit="10"/></g><g transform="translate(-54,-30) scale(1,1)"><g><path fill="none" stroke="none"/><text fill="#000000" stroke="none" font-family="Arial" font-size="13px" font-style="normal" font-weight="bold" text-decoration="none" x="748.445068359375" y="226.5">Sauvegarde</text></g></g><g transform="translate(-54,-30) scale(1,1)"><path fill="none" stroke="#000000" d="M 401 310 L 719 234" stroke-miterlimit="10"/></g></g></svg>